<?xml version="1.0" standalone="no"?><!DOCTYPE svg PUBLIC "-//W3C//DTD SVG 1.1//EN" "http://www.w3.org/Graphics/SVG/1.1/DTD/svg11.dtd"><svg class="icon" width="200px" height="200.00px" viewBox="0 0 1024 1024" version="1.1" xmlns="http://www.w3.org/2000/svg"><path d="M616.96 591.36m-307.2 0a307.2 307.2 0 1 0 614.4 0 307.2 307.2 0 1 0-614.4 0Z" fill="#FFD84A" /><path d="M509.44 924.16c-225.28 0-409.6-184.32-409.6-409.6s184.32-409.6 409.6-409.6 409.6 184.32 409.6 409.6-184.32 409.6-409.6 409.6z m0-769.28c-197.12 0-358.4 161.28-358.4 358.4s161.28 358.4 358.4 358.4 358.4-161.28 358.4-358.4-161.28-358.4-358.4-358.4z"  /><path d="M149.76 334.08c-43.52-23.04-71.68-69.12-71.68-121.6C78.08 136.96 136.96 76.8 211.2 76.8c52.48 0 101.12 33.28 121.6 83.2L285.44 179.2c-14.08-32-42.24-52.48-75.52-52.48-46.08 0-81.92 37.12-81.92 84.48 0 33.28 16.64 61.44 43.52 75.52l-21.76 47.36zM864 335.36l-21.76-46.08c29.44-14.08 48.64-44.8 48.64-78.08 0-46.08-37.12-84.48-81.92-84.48-33.28 0-64 20.48-75.52 53.76l-47.36-17.92c19.2-52.48 67.84-87.04 124.16-87.04 72.96 0 133.12 61.44 133.12 135.68-2.56 52.48-33.28 101.12-79.36 124.16zM508.16 729.6c-49.92 0-96-28.16-122.88-75.52-6.4-11.52-2.56-26.88 8.96-33.28 11.52-6.4 26.88-2.56 33.28 8.96 17.92 32 49.92 51.2 81.92 51.2 33.28 0 62.72-20.48 80.64-52.48 6.4-11.52 21.76-16.64 33.28-10.24 11.52 6.4 16.64 21.76 10.24 33.28-25.6 47.36-71.68 76.8-121.6 78.08h-3.84z"  /></svg>