<?xml version="1.0" standalone="no"?><!DOCTYPE svg PUBLIC "-//W3C//DTD SVG 1.1//EN" "http://www.w3.org/Graphics/SVG/1.1/DTD/svg11.dtd"><svg class="icon" width="200px" height="200.00px" viewBox="0 0 1024 1024" version="1.1" xmlns="http://www.w3.org/2000/svg"><path d="M682.24 673.28m-256 0a256 256 0 1 0 512 0 256 256 0 1 0-512 0Z" fill="#FFD84A" /><path d="M686.08 879.36H264.96c-112.64 0-204.8-92.16-204.8-204.8V428.8c0-65.28 30.72-126.72 81.92-165.12L345.6 111.36c78.08-57.6 183.04-57.6 261.12 0l202.24 152.32c52.48 39.68 81.92 99.84 81.92 165.12v244.48c0 113.92-92.16 206.08-204.8 206.08zM376.32 153.6L172.8 305.92c-38.4 28.16-61.44 74.24-61.44 124.16v244.48c0 84.48 69.12 153.6 153.6 153.6h421.12c84.48 0 153.6-69.12 153.6-153.6V428.8c0-48.64-23.04-93.44-61.44-124.16L576 152.32c-60.16-43.52-140.8-43.52-199.68 1.28z"  /><path d="M476.16 655.36c-14.08 0-25.6-14.08-25.6-32v-128c0-17.92 11.52-32 25.6-32s25.6 14.08 25.6 32v128c0 17.92-11.52 32-25.6 32z"  /></svg>